<svg version="1.1" viewBox="0.0 0.0 290.8031496062992 226.04199475065616" fill="none" stroke="none" stroke-linecap="square" stroke-miterlimit="10" xmlns:xlink="http://www.w3.org/1999/xlink" xmlns="http://www.w3.org/2000/svg"><clipPath id="p.0"><path d="m0 0l290.80316 0l0 226.04199l-290.80316 0l0 -226.04199z" clip-rule="nonzero"/></clipPath><g clip-path="url(#p.0)"><path fill="#000000" fill-opacity="0.0" d="m0 0l290.80316 0l0 226.04199l-290.80316 0z" fill-rule="evenodd"/><path fill="#ffffff" d="m59.007874 17.020998l192.0 0l0 192.0l-192.0 0z" fill-rule="evenodd"/><path stroke="#000000" stroke-width="4.0" stroke-linejoin="round" stroke-linecap="butt" d="m59.007874 17.020998l192.0 0l0 192.0l-192.0 0z" fill-rule="evenodd"/><path fill="#000000" d="m170.97662 67.776l1.0 0l0 9.8125l-1.0 0q-9.1875 0 -15.375 2.96875q-6.1875 2.96875 -9.8125 7.9375q-3.625 4.96875 -5.21875 11.15625q-1.59375 6.1875 -1.59375 12.5625l0 13.375q0 6.0625 1.4375 10.71875q1.4375 4.65625 3.9375 7.84375q2.5 3.1875 5.65625 4.8125q3.15625 1.625 6.59375 1.625q4.0 0 7.125 -1.53125q3.125 -1.53125 5.28125 -4.3125q2.15625 -2.78125 3.28125 -6.59375q1.125 -3.8125 1.125 -8.375q0 -4.0625 -1.0 -7.84375q-1.0 -3.78125 -3.0625 -6.75q-2.0625 -2.96875 -5.15625 -4.6875q-3.09375 -1.71875 -7.34375 -1.71875q-4.8125 0 -8.96875 2.34375q-4.15625 2.34375 -6.8125 6.125q-2.65625 3.78125 -3.03125 8.21875l-6.125 -0.0625q0.875 -7.0 3.28125 -11.96875q2.40625 -4.96875 6.0 -8.125q3.59375 -3.15625 8.0625 -4.625q4.46875 -1.46875 9.46875 -1.46875q6.8125 0 11.75 2.5625q4.9375 2.5625 8.125 6.84375q3.1875 4.28125 4.71875 9.625q1.53125 5.34375 1.53125 10.96875q0 6.4375 -1.8125 12.0625q-1.8125 5.625 -5.40625 9.875q-3.59375 4.25 -8.84375 6.625q-5.25 2.375 -12.1875 2.375q-7.375 0 -12.875 -3.03125q-5.5 -3.03125 -9.125 -8.09375q-3.625 -5.0625 -5.4375 -11.25q-1.8125 -6.1875 -1.8125 -12.5625l0 -5.4375q0 -9.625 1.9375 -18.875q1.9375 -9.25 6.71875 -16.75q4.78125 -7.5 13.28125 -11.9375q8.5 -4.4375 21.6875 -4.4375z" fill-rule="nonzero"/></g></svg>