<?xml version="1.0" encoding="utf-8"?>
<svg xmlns="http://www.w3.org/2000/svg" viewBox="262.5926 210.2724 76.92 65.93" width="76.92px" height="65.93px"><g id="group-1" transform="matrix(1, 0, 0, 1, 52.66657257080078, -4.012566566467285)"><title>Heart - empty</title><g><polygon style="fill:#F42A5A;" points="248.38600158691406 263.7349853515625 248.38600158691406 269.2250061035156 242.88600158691406 269.2250061035156 242.88600158691406 274.7250061035156 248.38600158691406 274.7250061035156 253.87600708007812 274.7250061035156 253.87600708007812 269.2250061035156 259.3760070800781 269.2250061035156 259.3760070800781 263.7349853515625"/><rect x="242.886" y="258.235" style="fill:#F42A5A;" width="5.5" height="5.5"/></g><g><polygon style="fill:#473D61;" points="281.346,230.765 281.346,236.255 281.346,241.755 281.346,247.245 286.846,247.245 &#xA;&#9;&#9;&#9;&#9;286.846,241.755 286.846,236.255 286.846,230.765 &#9;&#9;&#9;"/><rect x="275.856" y="247.245" style="fill:#473D61;" width="5.49" height="5.5"/><rect x="275.856" y="225.275" style="fill:#473D61;" width="5.49" height="5.49"/><rect x="270.366" y="252.745" style="fill:#473D61;" width="5.49" height="5.49"/><rect x="270.366" y="219.775" style="fill:#473D61;" width="5.49" height="5.5"/><rect x="264.866" y="258.235" style="fill:#473D61;" width="5.5" height="5.5"/><rect x="259.376" y="263.735" style="fill:#473D61;" width="5.49" height="5.49"/><polygon style="fill:#473D61;" points="264.866,219.775 270.366,219.775 270.366,214.285 264.866,214.285 259.376,214.285 &#xA;&#9;&#9;&#9;&#9;253.876,214.285 253.876,219.775 259.376,219.775 &#9;&#9;&#9;"/><rect x="253.876" y="269.225" style="fill:#473D61;" width="5.5" height="5.5"/><polygon style="fill:#473D61;" points="242.886,274.725 242.886,280.215 248.386,280.215 253.876,280.215 253.876,274.725 &#xA;&#9;&#9;&#9;&#9;248.386,274.725 &#9;&#9;&#9;"/><polygon style="fill:#473D61;" points="248.386,225.275 253.876,225.275 253.876,219.775 248.386,219.775 242.886,219.775 &#xA;&#9;&#9;&#9;&#9;242.886,225.275 &#9;&#9;&#9;"/><rect x="237.396" y="269.225" style="fill:#473D61;" width="5.49" height="5.5"/><rect x="231.896" y="263.735" style="fill:#473D61;" width="5.5" height="5.49"/><polygon style="fill:#473D61;" points="237.396,219.775 242.886,219.775 242.886,214.285 237.396,214.285 231.896,214.285 &#xA;&#9;&#9;&#9;&#9;226.406,214.285 226.406,219.775 231.896,219.775 &#9;&#9;&#9;"/><rect x="226.406" y="258.235" style="fill:#473D61;" width="5.49" height="5.5"/><rect x="220.906" y="252.745" style="fill:#473D61;" width="5.5" height="5.49"/><rect x="220.906" y="219.775" style="fill:#473D61;" width="5.5" height="5.5"/><rect x="215.416" y="247.245" style="fill:#473D61;" width="5.49" height="5.5"/><rect x="215.416" y="225.275" style="fill:#473D61;" width="5.49" height="5.49"/><polygon style="fill:#473D61;" points="215.416,236.255 215.416,230.765 209.926,230.765 209.926,236.255 209.926,241.755 &#xA;&#9;&#9;&#9;&#9;209.926,247.245 215.416,247.245 215.416,241.755 &#9;&#9;&#9;"/></g></g></svg>