<?xml version="1.0" encoding="utf-8"?>
<svg xmlns="http://www.w3.org/2000/svg" viewBox="81.7171 356.8955 65.93 76.92" width="65.93px" height="76.92px"><g id="group-4" transform="matrix(1, 0, 0, 1, 28.84107780456543, 4.233470439910889)"><title>Shield - empty</title><rect x="96.826" y="396.622" style="fill:#EAE8FC;" width="5.5" height="5.49"/><rect x="96.826" y="391.122" style="fill:#EAE8FC;" width="5.5" height="5.5"/><rect x="96.826" y="385.632" style="fill:#EAE8FC;" width="5.5" height="5.49"/><rect x="96.826" y="380.132" style="fill:#EAE8FC;" width="5.5" height="5.5"/><rect x="96.826" y="374.642" style="fill:#EAE8FC;" width="5.5" height="5.49"/><rect x="96.826" y="369.142" style="fill:#EAE8FC;" width="5.5" height="5.5"/><rect x="91.336" y="402.112" style="fill:#EAE8FC;" width="5.49" height="5.49"/><rect x="91.336" y="369.142" style="fill:#EAE8FC;" width="5.49" height="5.5"/><rect x="85.836" y="407.602" style="fill:#EAE8FC;" width="5.5" height="5.5"/><rect x="85.836" y="369.142" style="fill:#EAE8FC;" width="5.5" height="5.5"/><rect x="80.346" y="407.602" style="fill:#EAE8FC;" width="5.49" height="5.5"/><rect x="80.346" y="369.142" style="fill:#EAE8FC;" width="5.49" height="5.5"/><rect x="74.846" y="402.112" style="fill:#EAE8FC;" width="5.5" height="5.49"/><rect x="74.846" y="369.142" style="fill:#EAE8FC;" width="5.5" height="5.5"/><rect x="69.356" y="396.622" style="fill:#EAE8FC;" width="5.49" height="5.49"/><rect x="69.356" y="391.122" style="fill:#EAE8FC;" width="5.49" height="5.5"/><rect x="69.356" y="385.632" style="fill:#EAE8FC;" width="5.49" height="5.49"/><rect x="69.356" y="380.132" style="fill:#EAE8FC;" width="5.49" height="5.5"/><rect x="69.356" y="374.642" style="fill:#EAE8FC;" width="5.49" height="5.49"/><rect x="69.356" y="369.142" style="fill:#EAE8FC;" width="5.49" height="5.5"/><rect x="63.856" y="402.112" style="fill:#FFD393;" width="5.5" height="5.49"/><g/><rect x="85.836" y="418.592" style="fill:#B86554;" width="5.5" height="5.5"/><g><rect x="91.336" y="407.602" style="fill:#A15242;" width="5.49" height="5.5"/></g><rect x="63.856" y="391.122" style="fill:#D48677;" width="5.5" height="5.5"/><g><polygon style="fill:#473D61;" points="113.306,358.152 113.306,363.652 113.306,369.142 113.306,374.642 118.806,374.642 &#xA;&#9;&#9;&#9;&#9;118.806,369.142 118.806,363.652 118.806,358.152 &#9;&#9;&#9;"/><polygon style="fill:#473D61;" points="107.816,380.132 107.816,385.632 107.816,391.122 107.816,396.622 107.816,402.112 &#xA;&#9;&#9;&#9;&#9;102.326,402.112 102.326,407.602 102.326,413.102 107.816,413.102 107.816,407.602 113.306,407.602 113.306,402.112 &#xA;&#9;&#9;&#9;&#9;113.306,396.622 113.306,391.122 113.306,385.632 113.306,380.132 113.306,374.642 107.816,374.642 &#9;&#9;&#9;"/><rect x="107.816" y="352.662" style="fill:#473D61;" width="5.49" height="5.49"/><polygon style="fill:#473D61;" points="91.336,413.102 91.336,418.592 91.336,424.092 96.826,424.092 96.826,418.592 &#xA;&#9;&#9;&#9;&#9;102.326,418.592 102.326,413.102 96.826,413.102 &#9;&#9;&#9;"/><polygon style="fill:#473D61;" points="96.826,363.652 102.326,363.652 107.816,363.652 107.816,358.152 102.326,358.152 &#xA;&#9;&#9;&#9;&#9;96.826,358.152 91.336,358.152 91.336,363.652 &#9;&#9;&#9;"/><polygon style="fill:#473D61;" points="91.336,358.152 91.336,352.662 85.836,352.662 80.346,352.662 80.346,358.152 &#xA;&#9;&#9;&#9;&#9;85.836,358.152 &#9;&#9;&#9;"/><polygon style="fill:#473D61;" points="80.346,424.092 80.346,429.582 85.836,429.582 91.336,429.582 91.336,424.092 &#xA;&#9;&#9;&#9;&#9;85.836,424.092 &#9;&#9;&#9;"/><polygon style="fill:#473D61;" points="80.346,413.102 74.846,413.102 69.356,413.102 69.356,418.592 74.846,418.592 &#xA;&#9;&#9;&#9;&#9;74.846,424.092 80.346,424.092 80.346,418.592 &#9;&#9;&#9;"/><polygon style="fill:#473D61;" points="69.356,402.112 63.856,402.112 63.856,396.622 63.856,391.122 63.856,385.632 &#xA;&#9;&#9;&#9;&#9;63.856,380.132 63.856,374.642 58.366,374.642 58.366,380.132 58.366,385.632 58.366,391.122 58.366,396.622 58.366,402.112 &#xA;&#9;&#9;&#9;&#9;58.366,407.602 63.856,407.602 63.856,413.102 69.356,413.102 69.356,407.602 &#9;&#9;&#9;"/><polygon style="fill:#473D61;" points="69.356,363.652 74.846,363.652 80.346,363.652 80.346,358.152 74.846,358.152 &#xA;&#9;&#9;&#9;&#9;69.356,358.152 63.856,358.152 63.856,363.652 &#9;&#9;&#9;"/><rect x="58.366" y="352.662" style="fill:#473D61;" width="5.49" height="5.49"/><polygon style="fill:#473D61;" points="58.366,363.652 58.366,358.152 52.876,358.152 52.876,363.652 52.876,369.142 &#xA;&#9;&#9;&#9;&#9;52.876,374.642 58.366,374.642 58.366,369.142 &#9;&#9;&#9;"/></g></g></svg>