<?xml version="1.0" encoding="utf-8"?>
<svg xmlns="http://www.w3.org/2000/svg" viewBox="249.2811 63.7502 82.42 82.41" width="82.42px" height="82.41px"><g id="group-5" transform="matrix(1, 0, 0, 1, 39.94910430908203, -1.1727808713912964)"><title>Star - empty</title><rect x="275.272" y="130.853" style="fill:#F0916C;" width="5.49" height="5.49"/><rect x="269.772" y="119.863" style="fill:#C47565;" width="5.5" height="5.49"/><rect x="264.282" y="130.853" style="fill:#C47565;" width="5.49" height="5.49"/><rect x="225.822" y="130.853" style="fill:#C47565;" width="5.49" height="5.49"/><rect x="225.822" y="119.863" style="fill:#FFEAC8;" width="5.49" height="5.49"/><rect x="220.322" y="136.343" style="fill:#FFBE82;" width="5.5" height="5.5"/><rect x="220.322" y="125.353" style="fill:#FFEAC8;" width="5.5" height="5.5"/><g><rect x="214.832" y="136.343" style="fill:#FFD393;" width="5.49" height="5.5"/></g><g><polygon style="fill:#473D61;" points="280.762,141.843 275.272,141.843 275.272,147.333 280.762,147.333 286.262,147.333 &#xA;&#9;&#9;&#9;&#9;291.752,147.333 291.752,141.843 291.752,136.343 286.262,136.343 286.262,141.843 &#9;&#9;&#9;"/><polygon style="fill:#473D61;" points="280.762,136.343 286.262,136.343 286.262,130.853 286.262,125.353 280.762,125.353 &#xA;&#9;&#9;&#9;&#9;280.762,130.853 &#9;&#9;&#9;"/><rect x="275.272" y="119.863" style="fill:#473D61;" width="5.49" height="5.49"/><rect x="275.272" y="103.383" style="fill:#473D61;" width="5.49" height="5.49"/><polygon style="fill:#473D61;" points="269.772,136.343 264.282,136.343 264.282,141.843 269.772,141.843 275.272,141.843 &#xA;&#9;&#9;&#9;&#9;275.272,136.343 &#9;&#9;&#9;"/><polygon style="fill:#473D61;" points="275.272,108.873 269.772,108.873 269.772,114.373 269.772,119.863 275.272,119.863 &#xA;&#9;&#9;&#9;&#9;275.272,114.373 &#9;&#9;&#9;"/><polygon style="fill:#473D61;" points="269.772,97.883 275.272,97.883 280.762,97.883 280.762,103.383 286.262,103.383 &#xA;&#9;&#9;&#9;&#9;286.262,97.883 291.752,97.883 291.752,92.393 286.262,92.393 280.762,92.393 275.272,92.393 269.772,92.393 264.282,92.393 &#xA;&#9;&#9;&#9;&#9;264.282,97.883 &#9;&#9;&#9;"/><polygon style="fill:#473D61;" points="258.782,130.853 253.292,130.853 253.292,136.343 258.782,136.343 264.282,136.343 &#xA;&#9;&#9;&#9;&#9;264.282,130.853 &#9;&#9;&#9;"/><polygon style="fill:#473D61;" points="258.782,92.393 264.282,92.393 264.282,86.893 264.282,81.403 258.782,81.403 &#xA;&#9;&#9;&#9;&#9;258.782,86.893 &#9;&#9;&#9;"/><polygon style="fill:#473D61;" points="253.292,81.403 258.782,81.403 258.782,75.903 258.782,70.413 253.292,70.413 &#xA;&#9;&#9;&#9;&#9;253.292,75.903 &#9;&#9;&#9;"/><rect x="247.792" y="125.353" style="fill:#473D61;" width="5.5" height="5.5"/><rect x="247.792" y="64.923" style="fill:#473D61;" width="5.5" height="5.49"/><polygon style="fill:#473D61;" points="247.792,75.903 247.792,70.413 242.302,70.413 242.302,75.903 242.302,81.403 &#xA;&#9;&#9;&#9;&#9;247.792,81.403 &#9;&#9;&#9;"/><polygon style="fill:#473D61;" points="236.812,130.853 236.812,136.343 242.302,136.343 247.792,136.343 247.792,130.853 &#xA;&#9;&#9;&#9;&#9;242.302,130.853 &#9;&#9;&#9;"/><polygon style="fill:#473D61;" points="242.302,86.893 242.302,81.403 236.812,81.403 236.812,86.893 236.812,92.393 &#xA;&#9;&#9;&#9;&#9;242.302,92.393 &#9;&#9;&#9;"/><polygon style="fill:#473D61;" points="225.822,136.343 225.822,141.843 231.312,141.843 236.812,141.843 236.812,136.343 &#xA;&#9;&#9;&#9;&#9;231.312,136.343 &#9;&#9;&#9;"/><polygon style="fill:#473D61;" points="231.312,114.373 231.312,108.873 225.822,108.873 225.822,114.373 225.822,119.863 &#xA;&#9;&#9;&#9;&#9;231.312,119.863 &#9;&#9;&#9;"/><rect x="220.322" y="119.863" style="fill:#473D61;" width="5.5" height="5.49"/><rect x="220.322" y="103.383" style="fill:#473D61;" width="5.5" height="5.49"/><polygon style="fill:#473D61;" points="225.822,97.883 231.312,97.883 236.812,97.883 236.812,92.393 231.312,92.393 &#xA;&#9;&#9;&#9;&#9;225.822,92.393 220.322,92.393 214.832,92.393 209.332,92.393 209.332,97.883 214.832,97.883 214.832,103.383 220.322,103.383 &#xA;&#9;&#9;&#9;&#9;220.322,97.883 &#9;&#9;&#9;"/><polygon style="fill:#473D61;" points="214.832,141.843 214.832,136.343 209.332,136.343 209.332,141.843 209.332,147.333 &#xA;&#9;&#9;&#9;&#9;214.832,147.333 220.322,147.333 225.822,147.333 225.822,141.843 220.322,141.843 &#9;&#9;&#9;"/><polygon style="fill:#473D61;" points="220.322,130.853 220.322,125.353 214.832,125.353 214.832,130.853 214.832,136.343 &#xA;&#9;&#9;&#9;&#9;220.322,136.343 &#9;&#9;&#9;"/></g></g></svg>