<?xml version="1.0" encoding="utf-8"?>
<svg xmlns="http://www.w3.org/2000/svg" viewBox="377.5251 205.6983 65.94 82.42" width="65.94px" height="82.42px"><g id="object-0" transform="matrix(1, 0, 0, 1, -4.099937438964844, -0.34166938066482544)"><title>Lightning</title><rect x="436.575" y="211.53" style="fill:#FFBE82;" width="5.49" height="5.5"/><rect x="431.075" y="217.03" style="fill:#C47565;" width="5.5" height="5.49"/><rect x="431.075" y="211.53" style="fill:#FFBE82;" width="5.5" height="5.5"/><rect x="425.585" y="239" style="fill:#C47565;" width="5.49" height="5.5"/><rect x="425.585" y="222.52" style="fill:#FFBE82;" width="5.49" height="5.5"/><rect x="425.585" y="217.03" style="fill:#FFBE82;" width="5.49" height="5.49"/><rect x="420.085" y="244.5" style="fill:#F0916C;" width="5.5" height="5.49"/><rect x="420.085" y="239" style="fill:#FFBE82;" width="5.5" height="5.5"/><rect x="420.085" y="228.02" style="fill:#FFBE82;" width="5.5" height="5.49"/><rect x="420.085" y="222.52" style="fill:#F0916C;" width="5.5" height="5.5"/><rect x="414.595" y="249.99" style="fill:#FFBE82;" width="5.49" height="5.5"/><rect x="414.595" y="244.5" style="fill:#FFBE82;" width="5.49" height="5.49"/><rect x="409.095" y="255.49" style="fill:#C47565;" width="5.5" height="5.49"/><rect x="409.095" y="217.03" style="fill:#FFEAC8;" width="5.5" height="5.49"/><rect x="403.605" y="260.98" style="fill:#FFBE82;" width="5.49" height="5.5"/><rect x="403.605" y="255.49" style="fill:#FFBE82;" width="5.49" height="5.49"/><rect x="403.605" y="222.52" style="fill:#FFEAC8;" width="5.49" height="5.5"/><rect x="398.105" y="266.48" style="fill:#C47565;" width="5.5" height="5.49"/><rect x="398.105" y="239" style="fill:#FFBE82;" width="5.5" height="5.5"/><rect x="398.105" y="228.02" style="fill:#FFEAC8;" width="5.5" height="5.49"/><rect x="392.615" y="271.97" style="fill:#F0916C;" width="5.49" height="5.5"/><rect x="392.615" y="266.48" style="fill:#FFBE82;" width="5.49" height="5.49"/><rect x="387.125" y="277.47" style="fill:#FFBE82;" width="5.49" height="5.49"/><g><polygon style="fill:#FFD393;" points="425.585,211.53 420.085,211.53 414.595,211.53 409.095,211.53 403.605,211.53 &#xA;&#9;&#9;&#9;&#9;403.605,217.03 398.105,217.03 398.105,222.52 398.105,228.02 403.605,228.02 403.605,222.52 409.095,222.52 409.095,217.03 &#xA;&#9;&#9;&#9;&#9;414.595,217.03 414.595,222.52 409.095,222.52 409.095,228.02 403.605,228.02 403.605,233.51 398.105,233.51 398.105,228.02 &#xA;&#9;&#9;&#9;&#9;392.615,228.02 392.615,233.51 392.615,239 398.105,239 403.605,239 403.605,244.5 398.105,244.5 398.105,249.99 398.105,255.49 &#xA;&#9;&#9;&#9;&#9;392.615,255.49 392.615,260.98 392.615,266.48 398.105,266.48 403.605,266.48 403.605,260.98 403.605,255.49 409.095,255.49 &#xA;&#9;&#9;&#9;&#9;414.595,255.49 414.595,249.99 414.595,244.5 420.085,244.5 420.085,239 420.085,233.51 420.085,228.02 420.085,222.52 &#xA;&#9;&#9;&#9;&#9;425.585,222.52 425.585,217.03 431.075,217.03 431.075,211.53 &#9;&#9;&#9;"/><rect x="387.125" y="271.97" style="fill:#FFD393;" width="5.49" height="5.5"/></g><polygon style="fill:#F0916C;" points="392.615,239 387.125,239 387.125,244.5 392.615,244.5 398.105,244.5 398.105,239 &#9;&#9;"/><g><rect x="442.065" y="211.53" style="fill:#473D61;" width="5.5" height="5.5"/><rect x="436.575" y="217.03" style="fill:#473D61;" width="5.49" height="5.49"/><rect x="431.075" y="239" style="fill:#473D61;" width="5.5" height="5.5"/><rect x="431.075" y="222.52" style="fill:#473D61;" width="5.5" height="5.5"/><rect x="425.585" y="244.5" style="fill:#473D61;" width="5.49" height="5.49"/><polygon style="fill:#473D61;" points="425.585,233.51 420.085,233.51 420.085,239 425.585,239 431.075,239 431.075,233.51 &#xA;&#9;&#9;&#9;&#9;431.075,228.02 425.585,228.02 &#9;&#9;&#9;"/><rect x="420.085" y="249.99" style="fill:#473D61;" width="5.5" height="5.5"/><rect x="414.595" y="255.49" style="fill:#473D61;" width="5.49" height="5.49"/><rect x="409.095" y="260.98" style="fill:#473D61;" width="5.5" height="5.5"/><polygon style="fill:#473D61;" points="414.595,211.53 420.085,211.53 425.585,211.53 431.075,211.53 436.575,211.53 &#xA;&#9;&#9;&#9;&#9;442.065,211.53 442.065,206.04 436.575,206.04 431.075,206.04 425.585,206.04 420.085,206.04 414.595,206.04 409.095,206.04 &#xA;&#9;&#9;&#9;&#9;403.605,206.04 403.605,211.53 409.095,211.53 &#9;&#9;&#9;"/><rect x="403.605" y="266.48" style="fill:#473D61;" width="5.49" height="5.49"/><rect x="398.105" y="271.97" style="fill:#473D61;" width="5.5" height="5.5"/><rect x="398.105" y="211.53" style="fill:#473D61;" width="5.5" height="5.5"/><rect x="392.615" y="277.47" style="fill:#473D61;" width="5.49" height="5.49"/><polygon style="fill:#473D61;" points="398.105,249.99 403.605,249.99 403.605,244.5 398.105,244.5 392.615,244.5 387.125,244.5 &#xA;&#9;&#9;&#9;&#9;387.125,249.99 392.615,249.99 392.615,255.49 398.105,255.49 &#9;&#9;&#9;"/><polygon style="fill:#473D61;" points="398.105,222.52 398.105,217.03 392.615,217.03 392.615,222.52 392.615,228.02 &#xA;&#9;&#9;&#9;&#9;398.105,228.02 &#9;&#9;&#9;"/><polygon style="fill:#473D61;" points="392.615,266.48 392.615,260.98 392.615,255.49 387.125,255.49 387.125,260.98 &#xA;&#9;&#9;&#9;&#9;387.125,266.48 387.125,271.97 392.615,271.97 &#9;&#9;&#9;"/><polygon style="fill:#473D61;" points="392.615,233.51 392.615,228.02 387.125,228.02 387.125,233.51 387.125,239 392.615,239 &#xA;&#9;&#9;&#9;&#9;&#9;&#9;&#9;"/><polygon style="fill:#473D61;" points="387.125,277.47 387.125,271.97 381.625,271.97 381.625,277.47 381.625,282.96 &#xA;&#9;&#9;&#9;&#9;381.625,288.46 387.125,288.46 392.615,288.46 392.615,282.96 387.125,282.96 &#9;&#9;&#9;"/><rect x="381.625" y="239" style="fill:#473D61;" width="5.5" height="5.5"/></g></g></svg>