<?xml version="1.0" encoding="utf-8"?>
<svg xmlns="http://www.w3.org/2000/svg" viewBox="43.2761 67.3263 76.93 76.92" width="76.93px" height="76.92px"><g id="object-6" transform="matrix(1, 0, 0, 1, -4.099937438964844, -0.34165820479393005)"><title>Coin</title><rect x="91.336" y="111.618" style="fill:#FF7774;" width="5.49" height="5.5"/><rect x="91.336" y="84.148" style="fill:#FF7774;" width="5.49" height="5.49"/><rect x="85.836" y="117.118" style="fill:#FF7774;" width="5.5" height="5.49"/><rect x="85.836" y="84.148" style="fill:#FF7774;" width="5.5" height="5.49"/><rect x="80.346" y="117.118" style="fill:#FF7774;" width="5.49" height="5.49"/><rect x="80.346" y="84.148" style="fill:#FF7774;" width="5.49" height="5.49"/><rect x="74.856" y="84.148" style="fill:#FF7774;" width="5.49" height="5.49"/><rect x="69.356" y="89.638" style="fill:#FF7774;" width="5.5" height="5.5"/><rect x="63.866" y="111.618" style="fill:#FF7774;" width="5.49" height="5.5"/><rect x="63.866" y="106.128" style="fill:#FF7774;" width="5.49" height="5.49"/><rect x="63.866" y="100.628" style="fill:#FF7774;" width="5.49" height="5.5"/><rect x="63.866" y="95.138" style="fill:#FF7774;" width="5.49" height="5.49"/><g><path style="fill:#FFD393;" d="M113.316,89.638v-5.49h-5.5v-5.5h-5.49v-5.49h-5.5h-5.49h-5.5h-5.49h-5.49h-5.5v5.49h-5.49v5.5 h-5.5v5.49h-5.49v5.5v5.49v5.5v5.49v5.5v5.49h5.49v5.49v5.5h5.5h5.49v5.49h5.5h5.49h5.49h5.5h5.49h5.5v-5.49h5.49v-5.5h5.5v-5.49 h5.49v-5.49v-5.5v-5.49v-5.5v-5.49v-5.5H113.316z M113.316,100.628v5.5v5.49v5.5h-5.5v5.49h-5.49v5.49h-5.5v5.5h-5.49h-5.5h-5.49 h-5.49v-5.5h-5.5v-5.49h-5.49v-5.49h-5.5v-5.5v-5.49v-5.5v-5.49h5.5v-5.5h5.49v-5.49h5.5v-5.5h5.49h5.49h5.5h5.49v5.5h5.5v5.49 h5.49v5.5h5.5V100.628z"/><path style="fill:#FFD393;" d="M107.816,106.128v-5.5v-5.49h-5.49v-5.5h-5.5h-5.49h-5.5h-5.49h-5.49v5.5h-5.5v5.49v5.5v5.49v5.5 v5.49h5.5v5.49h5.49h5.49h5.5h5.49v-5.49h5.5v-5.49h5.49v-5.5V106.128z M91.336,117.118v5.49h-5.5h-5.49v-5.49v-5.5h-5.49v-5.49 v-5.5h5.49v-5.49h5.49h5.5v5.49h5.49v5.5v5.49v5.5H91.336z"/></g><rect x="113.316" y="117.118" style="fill:#FFBE82;" width="5.49" height="5.49"/><rect x="113.316" y="111.618" style="fill:#C47565;" width="5.49" height="5.5"/><rect x="113.316" y="106.128" style="fill:#FFBE82;" width="5.49" height="5.49"/><rect x="113.316" y="100.628" style="fill:#C47565;" width="5.49" height="5.5"/><rect x="113.316" y="95.138" style="fill:#FFBE82;" width="5.49" height="5.49"/><rect x="113.316" y="89.638" style="fill:#FFBE82;" width="5.49" height="5.5"/><rect x="107.816" y="122.608" style="fill:#C47565;" width="5.5" height="5.49"/><rect x="107.816" y="117.118" style="fill:#FFBE82;" width="5.5" height="5.49"/><rect x="102.326" y="128.098" style="fill:#C47565;" width="5.49" height="5.5"/><rect x="102.326" y="122.608" style="fill:#FFBE82;" width="5.49" height="5.49"/><rect x="102.326" y="106.128" style="fill:#F0916C;" width="5.49" height="5.49"/><rect x="102.326" y="100.628" style="fill:#F0916C;" width="5.49" height="5.5"/><rect x="102.326" y="78.648" style="fill:#F0916C;" width="5.49" height="5.5"/><rect x="96.826" y="133.598" style="fill:#F0916C;" width="5.5" height="5.49"/><rect x="96.826" y="128.098" style="fill:#FFBE82;" width="5.5" height="5.5"/><rect x="91.336" y="111.618" style="fill:#C47565;" width="5.49" height="5.5"/><rect x="91.336" y="106.128" style="fill:#FFEAC8;" width="5.49" height="5.49"/><rect x="91.336" y="100.628" style="fill:#FFEAC8;" width="5.49" height="5.5"/><rect x="91.336" y="84.148" style="fill:#C47565;" width="5.49" height="5.49"/><rect x="85.836" y="117.118" style="fill:#C47565;" width="5.5" height="5.49"/><rect x="85.836" y="111.618" style="fill:#FFEAC8;" width="5.5" height="5.5"/><rect x="85.836" y="106.128" style="fill:#FFEAC8;" width="5.5" height="5.49"/><rect x="85.836" y="100.628" style="fill:#FFEAC8;" width="5.5" height="5.5"/><rect x="85.836" y="95.138" style="fill:#FFEAC8;" width="5.5" height="5.49"/><rect x="85.836" y="84.148" style="fill:#C47565;" width="5.5" height="5.49"/><rect x="80.346" y="117.118" style="fill:#C47565;" width="5.49" height="5.49"/><rect x="80.346" y="111.618" style="fill:#FFEAC8;" width="5.49" height="5.5"/><rect x="80.346" y="106.128" style="fill:#FFEAC8;" width="5.49" height="5.49"/><rect x="80.346" y="100.628" style="fill:#FFEAC8;" width="5.49" height="5.5"/><rect x="80.346" y="95.138" style="fill:#FFEAC8;" width="5.49" height="5.49"/><rect x="80.346" y="84.148" style="fill:#C47565;" width="5.49" height="5.49"/><rect x="74.856" y="106.128" style="fill:#FFEAC8;" width="5.49" height="5.49"/><rect x="74.856" y="100.628" style="fill:#FFEAC8;" width="5.49" height="5.5"/><rect x="74.856" y="84.148" style="fill:#C47565;" width="5.49" height="5.49"/><rect x="69.356" y="89.638" style="fill:#C47565;" width="5.5" height="5.5"/><rect x="63.866" y="128.098" style="fill:#FFBE82;" width="5.49" height="5.5"/><rect x="63.866" y="111.618" style="fill:#C47565;" width="5.49" height="5.5"/><rect x="63.866" y="106.128" style="fill:#C47565;" width="5.49" height="5.49"/><rect x="63.866" y="100.628" style="fill:#C47565;" width="5.49" height="5.5"/><rect x="63.866" y="95.138" style="fill:#C47565;" width="5.49" height="5.49"/><g><rect x="69.356" y="73.158" style="fill:#FFEAC8;" width="5.5" height="5.49"/><rect x="63.866" y="78.648" style="fill:#FFEAC8;" width="5.49" height="5.5"/><rect x="58.366" y="84.148" style="fill:#FFEAC8;" width="5.5" height="5.49"/><polygon style="fill:#FFEAC8;" points="52.876,95.138 52.876,100.628 52.876,106.128 52.876,111.618 52.876,117.118 &#xA;&#9;&#9;&#9;&#9;58.366,117.118 58.366,111.618 58.366,106.128 58.366,100.628 58.366,95.138 58.366,89.638 52.876,89.638 &#9;&#9;&#9;"/></g><rect x="107.816" y="111.618" style="fill:#C47565;" width="5.5" height="5.5"/><rect x="107.816" y="106.128" style="fill:#C47565;" width="5.5" height="5.49"/><rect x="107.816" y="100.628" style="fill:#C47565;" width="5.5" height="5.5"/><rect x="107.816" y="95.138" style="fill:#C47565;" width="5.5" height="5.49"/><rect x="102.326" y="117.118" style="fill:#C47565;" width="5.49" height="5.49"/><rect x="102.326" y="106.128" style="fill:#FFBE82;" width="5.49" height="5.49"/><rect x="102.326" y="100.628" style="fill:#FFBE82;" width="5.49" height="5.5"/><rect x="102.326" y="89.638" style="fill:#C47565;" width="5.49" height="5.5"/><rect x="96.826" y="122.608" style="fill:#C47565;" width="5.5" height="5.49"/><rect x="96.826" y="117.118" style="fill:#FFBE82;" width="5.5" height="5.49"/><rect x="96.826" y="95.138" style="fill:#FFBE82;" width="5.5" height="5.49"/><rect x="96.826" y="84.148" style="fill:#C47565;" width="5.5" height="5.49"/><rect x="91.336" y="128.098" style="fill:#C47565;" width="5.49" height="5.5"/><rect x="91.336" y="106.128" style="fill:#C47565;" width="5.49" height="5.49"/><rect x="91.336" y="100.628" style="fill:#C47565;" width="5.49" height="5.5"/><rect x="91.336" y="78.648" style="fill:#C47565;" width="5.49" height="5.5"/><rect x="85.836" y="128.098" style="fill:#C47565;" width="5.5" height="5.5"/><rect x="85.836" y="111.618" style="fill:#C47565;" width="5.5" height="5.5"/><rect x="85.836" y="106.128" style="fill:#FFBE82;" width="5.5" height="5.49"/><rect x="85.836" y="100.628" style="fill:#FFBE82;" width="5.5" height="5.5"/><rect x="85.836" y="95.138" style="fill:#C47565;" width="5.5" height="5.49"/><rect x="85.836" y="78.648" style="fill:#C47565;" width="5.5" height="5.5"/><rect x="80.346" y="128.098" style="fill:#C47565;" width="5.49" height="5.5"/><rect x="80.346" y="111.618" style="fill:#C47565;" width="5.49" height="5.5"/><rect x="80.346" y="106.128" style="fill:#FFBE82;" width="5.49" height="5.49"/><rect x="80.346" y="95.138" style="fill:#C47565;" width="5.49" height="5.49"/><rect x="80.346" y="78.648" style="fill:#C47565;" width="5.49" height="5.5"/><rect x="74.856" y="128.098" style="fill:#C47565;" width="5.49" height="5.5"/><rect x="74.856" y="122.608" style="fill:#FFBE82;" width="5.49" height="5.49"/><rect x="74.856" y="106.128" style="fill:#C47565;" width="5.49" height="5.49"/><rect x="74.856" y="100.628" style="fill:#C47565;" width="5.49" height="5.5"/><rect x="74.856" y="78.648" style="fill:#C47565;" width="5.49" height="5.5"/><rect x="69.356" y="122.608" style="fill:#C47565;" width="5.5" height="5.49"/><rect x="69.356" y="84.148" style="fill:#C47565;" width="5.5" height="5.49"/><rect x="63.866" y="117.118" style="fill:#C47565;" width="5.49" height="5.49"/><g><rect x="113.316" y="111.618" style="fill:#FFAF7C;" width="5.49" height="5.5"/><rect x="113.316" y="100.628" style="fill:#FFAF7C;" width="5.49" height="5.5"/><rect x="107.816" y="122.608" style="fill:#FFAF7C;" width="5.5" height="5.49"/><rect x="102.326" y="128.098" style="fill:#FFAF7C;" width="5.49" height="5.5"/><rect x="91.336" y="111.618" style="fill:#FFAF7C;" width="5.49" height="5.5"/><polygon style="fill:#FFAF7C;" points="85.836,84.148 80.346,84.148 74.856,84.148 74.856,89.638 80.346,89.638 85.836,89.638 &#xA;&#9;&#9;&#9;&#9;91.336,89.638 96.826,89.638 96.826,84.148 91.336,84.148 &#9;&#9;&#9;"/><polygon style="fill:#FFAF7C;" points="80.346,117.118 80.346,122.608 85.836,122.608 91.336,122.608 91.336,117.118 &#xA;&#9;&#9;&#9;&#9;85.836,117.118 &#9;&#9;&#9;"/><rect x="69.356" y="89.638" style="fill:#FFAF7C;" width="5.5" height="5.5"/><polygon style="fill:#FFAF7C;" points="63.866,100.628 63.866,106.128 63.866,111.618 63.866,117.118 69.356,117.118 &#xA;&#9;&#9;&#9;&#9;69.356,111.618 69.356,106.128 69.356,100.628 69.356,95.138 63.866,95.138 &#9;&#9;&#9;"/></g><rect x="63.866" y="89.638" style="fill:#C47565;" width="5.49" height="5.5"/><rect x="58.366" y="111.618" style="fill:#C47565;" width="5.5" height="5.5"/><rect x="58.366" y="106.128" style="fill:#C47565;" width="5.5" height="5.49"/><rect x="58.366" y="100.628" style="fill:#C47565;" width="5.5" height="5.5"/><rect x="58.366" y="95.138" style="fill:#C47565;" width="5.5" height="5.49"/><g><polygon style="fill:#473D61;" points="107.816,100.628 107.816,106.128 107.816,111.618 107.816,117.118 113.316,117.118 &#xA;&#9;&#9;&#9;&#9;113.316,111.618 113.316,106.128 113.316,100.628 113.316,95.138 107.816,95.138 &#9;&#9;&#9;"/><rect x="102.326" y="117.118" style="fill:#473D61;" width="5.49" height="5.49"/><rect x="102.326" y="89.638" style="fill:#473D61;" width="5.49" height="5.5"/><rect x="96.826" y="122.608" style="fill:#473D61;" width="5.5" height="5.49"/><rect x="96.826" y="84.148" style="fill:#473D61;" width="5.5" height="5.49"/><polygon style="fill:#473D61;" points="85.836,128.098 80.346,128.098 74.856,128.098 74.856,133.598 80.346,133.598 &#xA;&#9;&#9;&#9;&#9;85.836,133.598 91.336,133.598 96.826,133.598 96.826,128.098 91.336,128.098 &#9;&#9;&#9;"/><polygon style="fill:#473D61;" points="85.836,84.148 91.336,84.148 96.826,84.148 96.826,78.648 91.336,78.648 85.836,78.648 &#xA;&#9;&#9;&#9;&#9;80.346,78.648 74.856,78.648 74.856,84.148 80.346,84.148 &#9;&#9;&#9;"/><rect x="69.356" y="122.608" style="fill:#473D61;" width="5.5" height="5.49"/><rect x="69.356" y="84.148" style="fill:#473D61;" width="5.5" height="5.49"/><rect x="63.866" y="117.118" style="fill:#473D61;" width="5.49" height="5.49"/><rect x="63.866" y="89.638" style="fill:#473D61;" width="5.49" height="5.5"/><polygon style="fill:#473D61;" points="63.866,106.128 63.866,100.628 63.866,95.138 58.366,95.138 58.366,100.628 &#xA;&#9;&#9;&#9;&#9;58.366,106.128 58.366,111.618 58.366,117.118 63.866,117.118 63.866,111.618 &#9;&#9;&#9;"/><polygon style="fill:#473D61;" points="118.806,89.638 118.806,95.138 118.806,100.628 118.806,106.128 118.806,111.618 &#xA;&#9;&#9;&#9;&#9;118.806,117.118 118.806,122.608 124.306,122.608 124.306,117.118 124.306,111.618 124.306,106.128 124.306,100.628 &#xA;&#9;&#9;&#9;&#9;124.306,95.138 124.306,89.638 &#9;&#9;&#9;"/><rect x="113.316" y="122.608" style="fill:#473D61;" width="5.49" height="5.49"/><rect x="113.316" y="84.148" style="fill:#473D61;" width="5.49" height="5.49"/><rect x="107.816" y="128.098" style="fill:#473D61;" width="5.5" height="5.5"/><rect x="107.816" y="78.648" style="fill:#473D61;" width="5.5" height="5.5"/><rect x="102.326" y="133.598" style="fill:#473D61;" width="5.49" height="5.49"/><rect x="102.326" y="73.158" style="fill:#473D61;" width="5.49" height="5.49"/><polygon style="fill:#473D61;" points="91.336,139.088 85.836,139.088 80.346,139.088 74.856,139.088 69.356,139.088 &#xA;&#9;&#9;&#9;&#9;69.356,144.588 74.856,144.588 80.346,144.588 85.836,144.588 91.336,144.588 96.826,144.588 102.326,144.588 102.326,139.088 &#xA;&#9;&#9;&#9;&#9;96.826,139.088 &#9;&#9;&#9;"/><polygon style="fill:#473D61;" points="80.346,73.158 85.836,73.158 91.336,73.158 96.826,73.158 102.326,73.158 102.326,67.668 &#xA;&#9;&#9;&#9;&#9;96.826,67.668 91.336,67.668 85.836,67.668 80.346,67.668 74.856,67.668 69.356,67.668 69.356,73.158 74.856,73.158 &#9;&#9;&#9;"/><rect x="63.866" y="133.598" style="fill:#473D61;" width="5.49" height="5.49"/><rect x="63.866" y="73.158" style="fill:#473D61;" width="5.49" height="5.49"/><rect x="58.366" y="128.098" style="fill:#473D61;" width="5.5" height="5.5"/><rect x="58.366" y="78.648" style="fill:#473D61;" width="5.5" height="5.5"/><rect x="52.876" y="122.608" style="fill:#473D61;" width="5.49" height="5.49"/><rect x="52.876" y="84.148" style="fill:#473D61;" width="5.49" height="5.49"/><polygon style="fill:#473D61;" points="52.876,111.618 52.876,106.128 52.876,100.628 52.876,95.138 52.876,89.638 &#xA;&#9;&#9;&#9;&#9;47.376,89.638 47.376,95.138 47.376,100.628 47.376,106.128 47.376,111.618 47.376,117.118 47.376,122.608 52.876,122.608 &#xA;&#9;&#9;&#9;&#9;52.876,117.118 &#9;&#9;&#9;"/></g></g></svg>