<?xml version="1.0" encoding="utf-8"?>
<svg xmlns="http://www.w3.org/2000/svg" viewBox="424.1721 208.588 65.94 82.42" width="65.94px" height="82.42px"><g id="group-2" transform="matrix(1, 0, 0, 1, 42.547061920166016, 2.547978401184082)"><title>Lightning - empty</title><rect x="398.105" y="266.48" style="fill:#C47565;" width="5.5" height="5.49"/><rect x="392.615" y="271.97" style="fill:#F0916C;" width="5.49" height="5.5"/><rect x="387.125" y="277.47" style="fill:#FFBE82;" width="5.49" height="5.49"/><g><rect x="387.125" y="271.97" style="fill:#FFD393;" width="5.49" height="5.5"/></g><g><rect x="442.065" y="211.53" style="fill:#473D61;" width="5.5" height="5.5"/><rect x="436.575" y="217.03" style="fill:#473D61;" width="5.49" height="5.49"/><rect x="431.075" y="239" style="fill:#473D61;" width="5.5" height="5.5"/><rect x="431.075" y="222.52" style="fill:#473D61;" width="5.5" height="5.5"/><rect x="425.585" y="244.5" style="fill:#473D61;" width="5.49" height="5.49"/><polygon style="fill:#473D61;" points="425.585,233.51 420.085,233.51 420.085,239 425.585,239 431.075,239 431.075,233.51 &#xA;&#9;&#9;&#9;&#9;431.075,228.02 425.585,228.02 &#9;&#9;&#9;"/><rect x="420.085" y="249.99" style="fill:#473D61;" width="5.5" height="5.5"/><rect x="414.595" y="255.49" style="fill:#473D61;" width="5.49" height="5.49"/><rect x="409.095" y="260.98" style="fill:#473D61;" width="5.5" height="5.5"/><polygon style="fill:#473D61;" points="414.595,211.53 420.085,211.53 425.585,211.53 431.075,211.53 436.575,211.53 &#xA;&#9;&#9;&#9;&#9;442.065,211.53 442.065,206.04 436.575,206.04 431.075,206.04 425.585,206.04 420.085,206.04 414.595,206.04 409.095,206.04 &#xA;&#9;&#9;&#9;&#9;403.605,206.04 403.605,211.53 409.095,211.53 &#9;&#9;&#9;"/><rect x="403.605" y="266.48" style="fill:#473D61;" width="5.49" height="5.49"/><rect x="398.105" y="271.97" style="fill:#473D61;" width="5.5" height="5.5"/><rect x="398.105" y="211.53" style="fill:#473D61;" width="5.5" height="5.5"/><rect x="392.615" y="277.47" style="fill:#473D61;" width="5.49" height="5.49"/><polygon style="fill:#473D61;" points="398.105,249.99 403.605,249.99 403.605,244.5 398.105,244.5 392.615,244.5 387.125,244.5 &#xA;&#9;&#9;&#9;&#9;387.125,249.99 392.615,249.99 392.615,255.49 398.105,255.49 &#9;&#9;&#9;"/><polygon style="fill:#473D61;" points="398.105,222.52 398.105,217.03 392.615,217.03 392.615,222.52 392.615,228.02 &#xA;&#9;&#9;&#9;&#9;398.105,228.02 &#9;&#9;&#9;"/><polygon style="fill:#473D61;" points="392.615,266.48 392.615,260.98 392.615,255.49 387.125,255.49 387.125,260.98 &#xA;&#9;&#9;&#9;&#9;387.125,266.48 387.125,271.97 392.615,271.97 &#9;&#9;&#9;"/><polygon style="fill:#473D61;" points="392.615,233.51 392.615,228.02 387.125,228.02 387.125,233.51 387.125,239 392.615,239 &#xA;&#9;&#9;&#9;&#9;&#9;&#9;&#9;"/><polygon style="fill:#473D61;" points="387.125,277.47 387.125,271.97 381.625,271.97 381.625,277.47 381.625,282.96 &#xA;&#9;&#9;&#9;&#9;381.625,288.46 387.125,288.46 392.615,288.46 392.615,282.96 387.125,282.96 &#9;&#9;&#9;"/><rect x="381.625" y="239" style="fill:#473D61;" width="5.5" height="5.5"/></g></g></svg>