<?xml version="1.0" encoding="utf-8"?>
<svg xmlns="http://www.w3.org/2000/svg" viewBox="245.1698 357.0307 82.41 65.94" width="82.41px" height="65.94px"><g id="group-3" transform="matrix(1, 0, 0, 1, 36.050758361816406, -1.121306300163269)"><title>Diamond - empty</title><g><rect x="220.109" y="369.142" style="fill:#9A9AE6;" width="5.49" height="5.5"/></g><rect x="264.059" y="396.622" style="fill:#C0C0F3;" width="5.5" height="5.49"/><rect x="264.059" y="380.132" style="fill:#FFFFFF;" width="5.5" height="5.5"/><rect x="258.569" y="363.652" style="fill:#FFFFFF;" width="5.49" height="5.49"/><g><polygon style="fill:#EAE8FC;" points="269.559,374.642 275.049,374.642 275.049,369.142 275.049,363.652 269.559,363.652 &#xA;&#9;&#9;&#9;&#9;269.559,369.142 264.059,369.142 264.059,374.642 &#9;&#9;&#9;"/><polygon style="fill:#EAE8FC;" points="258.569,374.642 258.569,369.142 264.059,369.142 264.059,363.652 258.569,363.652 &#xA;&#9;&#9;&#9;&#9;253.069,363.652 253.069,369.142 247.579,369.142 247.579,363.652 242.079,363.652 236.589,363.652 236.589,369.142 &#xA;&#9;&#9;&#9;&#9;242.079,369.142 242.079,374.642 247.579,374.642 253.069,374.642 &#9;&#9;&#9;"/></g><rect x="242.079" y="369.142" style="fill:#FFFFFF;" width="5.5" height="5.5"/><rect x="242.079" y="363.652" style="fill:#C0C0F3;" width="5.5" height="5.49"/><rect x="236.589" y="402.112" style="fill:#FFFFFF;" width="5.49" height="5.49"/><rect x="236.589" y="391.122" style="fill:#C0C0F3;" width="5.49" height="5.5"/><rect x="236.589" y="385.632" style="fill:#FFFFFF;" width="5.49" height="5.49"/><rect x="231.089" y="396.622" style="fill:#FFFFFF;" width="5.5" height="5.49"/><rect x="225.599" y="391.122" style="fill:#FFFFFF;" width="5.49" height="5.5"/><g><rect x="280.549" y="380.132" style="fill:#DBD7FC;" width="5.49" height="5.5"/><rect x="269.559" y="369.142" style="fill:#DBD7FC;" width="5.49" height="5.5"/><rect x="253.069" y="407.602" style="fill:#DBD7FC;" width="5.5" height="5.5"/><rect x="253.069" y="369.142" style="fill:#DBD7FC;" width="5.5" height="5.5"/><rect x="242.079" y="402.112" style="fill:#DBD7FC;" width="5.5" height="5.49"/><rect x="236.589" y="363.652" style="fill:#DBD7FC;" width="5.49" height="5.49"/><rect x="225.599" y="385.632" style="fill:#DBD7FC;" width="5.49" height="5.49"/></g><rect x="225.599" y="363.652" style="fill:#FFFFFF;" width="5.49" height="5.49"/><rect x="220.109" y="385.632" style="fill:#FFFFFF;" width="5.49" height="5.49"/><rect x="214.609" y="380.132" style="fill:#FFFFFF;" width="5.5" height="5.5"/><g><polygon style="fill:#473D61;" points="286.039,374.642 286.039,380.132 286.039,385.632 291.529,385.632 291.529,380.132 &#xA;&#9;&#9;&#9;&#9;291.529,374.642 &#9;&#9;&#9;"/><rect x="280.549" y="385.632" style="fill:#473D61;" width="5.49" height="5.49"/><rect x="275.049" y="391.122" style="fill:#473D61;" width="5.5" height="5.5"/><rect x="269.559" y="396.622" style="fill:#473D61;" width="5.49" height="5.49"/><rect x="264.059" y="402.112" style="fill:#473D61;" width="5.5" height="5.49"/><rect x="258.569" y="407.602" style="fill:#473D61;" width="5.49" height="5.5"/><rect x="253.069" y="413.102" style="fill:#473D61;" width="5.5" height="5.49"/><rect x="247.579" y="418.592" style="fill:#473D61;" width="5.49" height="5.5"/><rect x="242.079" y="413.102" style="fill:#473D61;" width="5.5" height="5.49"/><rect x="236.589" y="407.602" style="fill:#473D61;" width="5.49" height="5.5"/><rect x="231.089" y="402.112" style="fill:#473D61;" width="5.5" height="5.49"/><rect x="225.599" y="396.622" style="fill:#473D61;" width="5.49" height="5.49"/><rect x="220.109" y="391.122" style="fill:#473D61;" width="5.49" height="5.5"/><rect x="214.609" y="385.632" style="fill:#473D61;" width="5.5" height="5.49"/><polygon style="fill:#473D61;" points="214.609,374.642 209.119,374.642 209.119,380.132 209.119,385.632 214.609,385.632 &#xA;&#9;&#9;&#9;&#9;214.609,380.132 &#9;&#9;&#9;"/><rect x="214.609" y="369.142" style="fill:#473D61;" width="5.5" height="5.5"/><rect x="280.549" y="369.142" style="fill:#473D61;" width="5.49" height="5.5"/><rect x="275.049" y="363.652" style="fill:#473D61;" width="5.5" height="5.49"/><rect x="220.109" y="363.652" style="fill:#473D61;" width="5.49" height="5.49"/><polygon style="fill:#473D61;" points="236.589,363.652 242.079,363.652 247.579,363.652 253.069,363.652 258.569,363.652 &#xA;&#9;&#9;&#9;&#9;264.059,363.652 269.559,363.652 275.049,363.652 275.049,358.152 269.559,358.152 264.059,358.152 258.569,358.152 &#xA;&#9;&#9;&#9;&#9;253.069,358.152 247.579,358.152 242.079,358.152 236.589,358.152 231.089,358.152 225.599,358.152 225.599,363.652 &#xA;&#9;&#9;&#9;&#9;231.089,363.652 &#9;&#9;&#9;"/></g></g></svg>