<?xml version="1.0" encoding="utf-8"?>
<svg xmlns="http://www.w3.org/2000/svg" viewBox="372.4651 67.7643 76.059 76.043" width="76.059px" height="76.043px"><g id="object-4" transform="matrix(1, 0, 0, 1, -4.099937438964844, -0.34165820479393005)"><title>Sword</title><g><rect x="440.918" y="79.797" style="fill:#DBD7FC;" width="5.856" height="5.856"/><rect x="435.072" y="85.653" style="fill:#DBD7FC;" width="5.845" height="5.845"/><rect x="429.216" y="91.498" style="fill:#DBD7FC;" width="5.856" height="5.856"/><rect x="423.371" y="97.354" style="fill:#DBD7FC;" width="5.845" height="5.845"/><rect x="417.515" y="103.2" style="fill:#DBD7FC;" width="5.856" height="5.856"/><rect x="411.67" y="109.056" style="fill:#DBD7FC;" width="5.845" height="5.845"/></g><g><polygon style="fill:#EAE8FC;" points="440.918,73.952 435.072,73.952 435.072,79.797 435.072,85.653 440.918,85.653 &#xA;&#9;&#9;&#9;&#9;440.918,79.797 446.774,79.797 446.774,73.952 &#9;&#9;&#9;"/><rect x="429.216" y="85.653" style="fill:#EAE8FC;" width="5.856" height="5.845"/><rect x="423.371" y="91.498" style="fill:#EAE8FC;" width="5.845" height="5.856"/><rect x="417.515" y="97.354" style="fill:#EAE8FC;" width="5.856" height="5.845"/><polygon style="fill:#EAE8FC;" points="405.824,103.2 405.824,109.056 405.824,114.901 411.67,114.901 411.67,109.056 &#xA;&#9;&#9;&#9;&#9;417.515,109.056 417.515,103.2 411.67,103.2 &#9;&#9;&#9;"/></g><rect x="399.968" y="114.901" style="fill:#FFD393;" width="5.856" height="5.856"/><g><rect x="429.216" y="79.797" style="fill:#FFFFFF;" width="5.856" height="5.856"/><rect x="423.371" y="85.653" style="fill:#FFFFFF;" width="5.845" height="5.845"/><rect x="417.515" y="91.498" style="fill:#FFFFFF;" width="5.856" height="5.856"/><rect x="411.67" y="97.354" style="fill:#FFFFFF;" width="5.845" height="5.845"/><rect x="399.968" y="103.2" style="fill:#FFFFFF;" width="5.856" height="5.856"/></g><rect x="388.267" y="97.354" style="fill:#D48677;" width="5.856" height="5.845"/><g><polygon style="fill:#A15242;" points="411.67,126.603 411.67,132.448 411.67,138.304 417.515,138.304 417.515,132.448 &#xA;&#9;&#9;&#9;&#9;417.515,126.603 &#9;&#9;&#9;"/><polygon style="fill:#A15242;" points="405.824,120.757 399.968,120.757 394.123,120.757 394.123,126.603 399.968,126.603 &#xA;&#9;&#9;&#9;&#9;405.824,126.603 411.67,126.603 411.67,120.757 &#9;&#9;&#9;"/><rect x="388.267" y="126.603" style="fill:#A15242;" width="5.856" height="5.845"/><rect x="388.267" y="103.2" style="fill:#A15242;" width="5.856" height="5.856"/><rect x="382.421" y="132.448" style="fill:#A15242;" width="5.845" height="5.856"/></g><g><rect x="417.515" y="126.603" style="fill:#C47565;" width="5.856" height="5.845"/><rect x="405.824" y="114.901" style="fill:#C47565;" width="5.845" height="5.856"/><polygon style="fill:#C47565;" points="399.968,109.056 394.123,109.056 394.123,114.901 394.123,120.757 399.968,120.757 &#xA;&#9;&#9;&#9;&#9;399.968,114.901 405.824,114.901 405.824,109.056 &#9;&#9;&#9;"/><rect x="382.421" y="103.2" style="fill:#C47565;" width="5.845" height="5.856"/></g><g><rect x="440.918" y="85.653" style="fill:#473D61;" width="5.856" height="5.845"/><polygon style="fill:#473D61;" points="446.774,68.106 446.768,68.106 440.918,68.106 435.072,68.106 435.072,73.952 &#xA;&#9;&#9;&#9;&#9;440.918,73.952 446.768,73.952 446.774,73.952 446.774,79.797 446.774,85.653 452.619,85.653 452.619,79.797 452.619,73.952 &#xA;&#9;&#9;&#9;&#9;452.624,73.952 452.624,68.106 &#9;&#9;&#9;"/><rect x="435.072" y="91.498" style="fill:#473D61;" width="5.845" height="5.856"/><rect x="429.216" y="97.354" style="fill:#473D61;" width="5.856" height="5.845"/><rect x="429.216" y="73.952" style="fill:#473D61;" width="5.856" height="5.845"/><rect x="423.371" y="103.2" style="fill:#473D61;" width="5.845" height="5.856"/><rect x="423.371" y="79.797" style="fill:#473D61;" width="5.845" height="5.856"/><rect x="417.515" y="132.448" style="fill:#473D61;" width="5.856" height="5.856"/><rect x="417.515" y="109.056" style="fill:#473D61;" width="5.856" height="5.845"/><rect x="417.515" y="85.653" style="fill:#473D61;" width="5.856" height="5.845"/><rect x="411.67" y="138.304" style="fill:#473D61;" width="5.845" height="5.845"/><polygon style="fill:#473D61;" points="411.67,120.757 411.67,126.603 417.515,126.603 423.371,126.603 423.371,132.448 &#xA;&#9;&#9;&#9;&#9;429.216,132.448 429.216,126.603 429.216,120.757 423.371,120.757 417.515,120.757 417.515,114.901 411.67,114.901 &#9;&#9;&#9;"/><rect x="411.67" y="91.498" style="fill:#473D61;" width="5.845" height="5.856"/><polygon style="fill:#473D61;" points="411.67,126.603 405.824,126.603 399.968,126.603 394.123,126.603 394.123,132.448 &#xA;&#9;&#9;&#9;&#9;399.968,132.448 405.824,132.448 405.824,138.304 411.67,138.304 411.67,132.448 &#9;&#9;&#9;"/><rect x="405.824" y="97.354" style="fill:#473D61;" width="5.845" height="5.845"/><polygon style="fill:#473D61;" points="394.123,109.056 399.968,109.056 405.824,109.056 405.824,103.2 399.968,103.2 &#xA;&#9;&#9;&#9;&#9;399.968,97.354 394.123,97.354 394.123,103.2 &#9;&#9;&#9;"/><rect x="388.267" y="132.448" style="fill:#473D61;" width="5.856" height="5.856"/><polygon style="fill:#473D61;" points="394.123,120.757 394.123,114.901 394.123,109.056 388.267,109.056 382.421,109.056 &#xA;&#9;&#9;&#9;&#9;382.421,114.901 388.267,114.901 388.267,120.757 388.267,126.603 394.123,126.603 &#9;&#9;&#9;"/><rect x="388.267" y="91.498" style="fill:#473D61;" width="5.856" height="5.856"/><rect x="382.421" y="138.304" style="fill:#473D61;" width="5.845" height="5.845"/><rect x="382.421" y="126.603" style="fill:#473D61;" width="5.845" height="5.845"/><rect x="382.421" y="97.354" style="fill:#473D61;" width="5.845" height="5.845"/><rect x="376.565" y="132.448" style="fill:#473D61;" width="5.856" height="5.856"/><rect x="376.565" y="103.2" style="fill:#473D61;" width="5.856" height="5.856"/></g></g></svg>