<?xml version="1.0" encoding="utf-8"?>
<svg xmlns="http://www.w3.org/2000/svg" viewBox="205.8261 213.9433 76.92 65.93" width="76.92px" height="65.93px"><g id="object-1" transform="matrix(1, 0, 0, 1, -4.099937438964844, -0.34166938066482544)"><title>Heart</title><g><polygon style="fill:#F42A5A;" points="275.856,230.765 275.856,225.275 270.366,225.275 270.366,230.765 270.366,236.255 &#xA;&#9;&#9;&#9;&#9;264.866,236.255 264.866,241.755 270.366,241.755 270.366,247.245 264.866,247.245 259.376,247.245 259.376,252.745 &#xA;&#9;&#9;&#9;&#9;253.876,252.745 253.876,258.235 253.876,263.735 248.386,263.735 248.386,269.225 242.886,269.225 242.886,274.725 &#xA;&#9;&#9;&#9;&#9;248.386,274.725 253.876,274.725 253.876,269.225 259.376,269.225 259.376,263.735 264.866,263.735 264.866,258.235 &#xA;&#9;&#9;&#9;&#9;270.366,258.235 270.366,252.745 275.856,252.745 275.856,247.245 281.346,247.245 281.346,241.755 281.346,236.255 &#xA;&#9;&#9;&#9;&#9;281.346,230.765 &#9;&#9;&#9;"/><rect x="264.866" y="219.775" style="fill:#F42A5A;" width="5.5" height="5.5"/><rect x="259.376" y="230.765" style="fill:#F42A5A;" width="5.49" height="5.49"/><rect x="248.386" y="241.755" style="fill:#F42A5A;" width="5.49" height="5.49"/><rect x="242.886" y="258.235" style="fill:#F42A5A;" width="5.5" height="5.5"/></g><rect x="226.406" y="236.255" style="fill:#FFABB1;" width="5.49" height="5.5"/><rect x="226.406" y="225.275" style="fill:#FFABB1;" width="5.49" height="5.49"/><rect x="220.906" y="230.765" style="fill:#FFABB1;" width="5.5" height="5.49"/><g><path style="fill:#FF6A85;" d="M264.866,225.275v-5.5h-5.49h-5.5v5.5h-5.49h-5.5v-5.5h-5.49h-5.5h-5.49v5.5h5.49v5.49h-5.49v5.49 h5.49v5.5h-5.49v-5.5h-5.5v-5.49h-5.49v5.49v5.5v5.49h5.49v5.5h5.5v5.49h5.49v5.5h5.5v5.49h5.49h5.5v-5.49h-5.5v-5.5h5.5v5.5 h5.49v-5.5v-5.49h5.5v-5.5h5.49h5.5v-5.49h-5.5v-5.5h-5.49v-5.49h5.49v5.49h5.5v-5.49v-5.49H264.866z M248.386,247.245v-5.49 h5.49v5.49H248.386z"/><rect x="220.906" y="225.275" style="fill:#FF6A85;" width="5.5" height="5.49"/></g><g><polygon style="fill:#473D61;" points="281.346,230.765 281.346,236.255 281.346,241.755 281.346,247.245 286.846,247.245 &#xA;&#9;&#9;&#9;&#9;286.846,241.755 286.846,236.255 286.846,230.765 &#9;&#9;&#9;"/><rect x="275.856" y="247.245" style="fill:#473D61;" width="5.49" height="5.5"/><rect x="275.856" y="225.275" style="fill:#473D61;" width="5.49" height="5.49"/><rect x="270.366" y="252.745" style="fill:#473D61;" width="5.49" height="5.49"/><rect x="270.366" y="219.775" style="fill:#473D61;" width="5.49" height="5.5"/><rect x="264.866" y="258.235" style="fill:#473D61;" width="5.5" height="5.5"/><rect x="259.376" y="263.735" style="fill:#473D61;" width="5.49" height="5.49"/><polygon style="fill:#473D61;" points="264.866,219.775 270.366,219.775 270.366,214.285 264.866,214.285 259.376,214.285 &#xA;&#9;&#9;&#9;&#9;253.876,214.285 253.876,219.775 259.376,219.775 &#9;&#9;&#9;"/><rect x="253.876" y="269.225" style="fill:#473D61;" width="5.5" height="5.5"/><polygon style="fill:#473D61;" points="242.886,274.725 242.886,280.215 248.386,280.215 253.876,280.215 253.876,274.725 &#xA;&#9;&#9;&#9;&#9;248.386,274.725 &#9;&#9;&#9;"/><polygon style="fill:#473D61;" points="248.386,225.275 253.876,225.275 253.876,219.775 248.386,219.775 242.886,219.775 &#xA;&#9;&#9;&#9;&#9;242.886,225.275 &#9;&#9;&#9;"/><rect x="237.396" y="269.225" style="fill:#473D61;" width="5.49" height="5.5"/><rect x="231.896" y="263.735" style="fill:#473D61;" width="5.5" height="5.49"/><polygon style="fill:#473D61;" points="237.396,219.775 242.886,219.775 242.886,214.285 237.396,214.285 231.896,214.285 &#xA;&#9;&#9;&#9;&#9;226.406,214.285 226.406,219.775 231.896,219.775 &#9;&#9;&#9;"/><rect x="226.406" y="258.235" style="fill:#473D61;" width="5.49" height="5.5"/><rect x="220.906" y="252.745" style="fill:#473D61;" width="5.5" height="5.49"/><rect x="220.906" y="219.775" style="fill:#473D61;" width="5.5" height="5.5"/><rect x="215.416" y="247.245" style="fill:#473D61;" width="5.49" height="5.5"/><rect x="215.416" y="225.275" style="fill:#473D61;" width="5.49" height="5.49"/><polygon style="fill:#473D61;" points="215.416,236.255 215.416,230.765 209.926,230.765 209.926,236.255 209.926,241.755 &#xA;&#9;&#9;&#9;&#9;209.926,247.245 215.416,247.245 215.416,241.755 &#9;&#9;&#9;"/></g></g></svg>